<?xml version="1.0" encoding="UTF-8" standalone="no"?>
<svg width="61px" height="61px" viewBox="0 0 61 61" version="1.1" xmlns="http://www.w3.org/2000/svg" xmlns:xlink="http://www.w3.org/1999/xlink">
    <!-- Generator: Sketch 44.1 (41455) - http://www.bohemiancoding.com/sketch -->
    <title>CoursesSpecialisation</title>
    <desc>Created with Sketch.</desc>
    <defs></defs>
    <g id="Designs---v2" stroke="none" stroke-width="1" fill="none" fill-rule="evenodd">
        <g id="MMON0208_Design-v4-B" transform="translate(-326.000000, -8079.000000)">
            <g id="6.-choose-monash" transform="translate(-5.000000, 5463.000000)">
                <g id="courses" transform="translate(253.000000, 2550.000000)">
                    <g id="Group-11" transform="translate(79.000000, 67.000000)">
                        <g id="CoursesSpecialisation">
                            <circle id="Oval" stroke="#000000" cx="29.7083333" cy="29.7083333" r="29.7083333"></circle>
                            <path d="M39.875,23.25 C39.875,17.3333333 35.0416667,12.5 29.125,12.5 C23.2083333,12.5 18.3333333,17.2916667 18.3333333,23.25 C18.3333333,27.375 20.6666667,31 24.0833333,32.7916667 C23.625,33.4166667 23.375,34.1666667 23.375,34.9583333 L23.375,39.125 C23.375,41.125 25.0416667,42.7916667 27.0416667,42.7916667 L31.2083333,42.7916667 C33.2083333,42.7916667 34.875,41.125 34.875,39.125 L34.875,34.9583333 C34.875,34.1666667 34.5833333,33.375 34.1666667,32.7916667 C37.5416667,30.9583333 39.875,27.375 39.875,23.25 Z" id="Shape" stroke="#000000"></path>
                            <path d="M34.5416667,44.7916667 L24,44.7916667 C23.625,44.7916667 23.3333333,44.5 23.3333333,44.125 L23.3333333,43.1666667 C23.3333333,42.7916667 23.625,42.5 24,42.5 L34.5416667,42.5 C34.9166667,42.5 35.2083333,42.7916667 35.2083333,43.1666667 L35.2083333,44.125 C35.2083333,44.5 34.9166667,44.7916667 34.5416667,44.7916667 Z" id="Shape" stroke="#000000"></path>
                            <path d="M34.5416667,47.7916667 L24,47.7916667 C23.625,47.7916667 23.3333333,47.5 23.3333333,47.125 L23.3333333,46.1666667 C23.3333333,45.7916667 23.625,45.5 24,45.5 L34.5416667,45.5 C34.9166667,45.5 35.2083333,45.7916667 35.2083333,46.1666667 L35.2083333,47.125 C35.2083333,47.5 34.9166667,47.7916667 34.5416667,47.7916667 Z" id="Shape" stroke="#000000"></path>
                            <path d="M29.25,32.5 L28.125,32.5 C27.7083333,32.5 27.3333333,32.875 27.3333333,33.2916667 L27.3333333,40.2916667 C27.3333333,40.7083333 27.7083333,41.0833333 28.125,41.0833333 L29.25,41.0833333 C29.6666667,41.0833333 30.0416667,40.7083333 30.0416667,40.2916667 L30.0416667,33.3333333 C30.0416667,32.9166667 29.6666667,32.5 29.25,32.5 Z" id="Shape" fill="#000000" fill-rule="nonzero"></path>
                            <polygon id="Shape" stroke="#000000" stroke-width="0.6" fill="#000000" fill-rule="nonzero" points="32.7083333 26.7083333 32.7083333 26.7083333 31.875 25.5 31.0833333 26.5833333 30.3333333 25.5 29.5 26.5833333 28.7916667 25.5 28 26.5833333 27.25 25.5 26.3333333 26.7083333 26.3333333 26.7083333 26.3333333 26.7083333 28.375 33.7916667 28.4583333 33.75 26.4583333 26.7083333 27.25 25.6666667 27.9166667 26.6666667 27.9583333 26.7916667 28.7916667 25.6666667 29.5 26.7916667 29.5 26.7916667 29.5 26.7916667 30.3333333 25.6666667 31.0833333 26.7916667 31.0833333 26.7916667 31.0833333 26.7916667 31.125 26.6666667 31.125 26.6666667 31.875 25.6666667 32.5833333 26.7083333 30.5833333 33.75 30.7083333 33.7916667"></polygon>
                        </g>
                    </g>
                </g>
            </g>
        </g>
    </g>
</svg>