<?xml version="1.0" encoding="UTF-8" standalone="no"?>
<svg width="61px" height="61px" viewBox="0 0 61 61" version="1.1" xmlns="http://www.w3.org/2000/svg" xmlns:xlink="http://www.w3.org/1999/xlink">
    <!-- Generator: Sketch 44.1 (41455) - http://www.bohemiancoding.com/sketch -->
    <title>SizeAndScale</title>
    <desc>Created with Sketch.</desc>
    <defs></defs>
    <g id="Designs---v2" stroke="none" stroke-width="1" fill="none" fill-rule="evenodd" stroke-opacity="0.989187047">
        <g id="MMON0208_Design-v4-B" transform="translate(-327.000000, -6582.000000)" stroke="#131313">
            <g id="6.-choose-monash" transform="translate(-5.000000, 5463.000000)">
                <g id="size-scale" transform="translate(332.000000, 1120.000000)">
                    <g id="Group-15">
                        <g id="Largets-uni-icon/black">
                            <g id="Largets-uni-icon">
                                <g id="Largets-uni-Icon-small--black" transform="translate(10.769202, 14.566759)">
                                    <g id="Largets-uni-Icon-small" transform="translate(19.663432, 14.949450) scale(1, -1) translate(-19.663432, -14.949450) translate(0.163432, -0.050550)">
                                        <path d="M18.3818945,8.43179462 L8.3635356,13.6100971 L8.3635356,5.47276464 L8.3635356,5.40551395 C8.3635356,3.34315972 13.7807025,0.294462168 19.4245292,0.294462168 C25.0683558,0.294462168 30.7348484,3.25349215 30.7801803,5.49518153 L30.8255123,5.49518153 L30.8255123,13.9463505 L20.1951721,8.43179462 C19.5831909,8.09554121 19.0392077,8.09554121 18.3818945,8.43179462 Z" id="Shape-Copy" stroke-width="0.8"></path>
                                        <path d="M37.8746291,20.5145004 L20.1951721,29.6830099 C19.4925271,30.0640971 19.0845396,30.0640971 18.3818945,29.6830099 L0.70243761,20.5145004 C0.294450142,20.1109963 0.226452231,19.528157 0.475777906,19.0574023 C0.543775817,18.9453178 0.611773728,18.8332333 0.70243761,18.7211489 L18.3818945,9.55263931 C19.0392077,9.2163859 19.5831909,9.2163859 20.1951721,9.55263931 L37.8746291,18.7211489 C37.9652929,18.8108164 38.0559568,18.9453178 38.1012888,19.0574023 C38.3506144,19.528157 38.2826165,20.1334132 37.8746291,20.5145004 Z" id="Shape-Copy-2" stroke-width="0.8"></path>
                                        <path d="M3.03703256,3.45524419 C3.24102629,3.47766109 3.467686,3.50007798 3.6943457,3.45524419 L3.6943457,17.1743832 L3.01436659,17.4882197 L3.01436659,3.45524419 L3.03703256,3.45524419 Z" id="Shape-Copy-3" stroke-width="0.8"></path>
                                        <ellipse id="Oval-Copy" stroke-width="0.8" cx="3.39968809" cy="1.90847852" rx="1.58661793" ry="1.56918257"></ellipse>
                                    </g>
                                </g>
                                <path d="M30.334329,0.129689219 C46.7119847,0.129689219 59.9887195,13.4064241 59.9887195,29.7840797 C59.9887195,46.1617354 46.7119847,59.4384702 30.334329,59.4384702 C13.9566734,59.4384702 0.679938539,46.1617354 0.679938539,29.7840797 C0.679938539,13.4064241 13.9566734,0.129689219 30.334329,0.129689219 Z" id="Stroke-1"></path>
                            </g>
                        </g>
                    </g>
                </g>
            </g>
        </g>
    </g>
</svg>