<?xml version="1.0" encoding="utf-8"?>
<!-- Generator: Adobe Illustrator 19.0.1, SVG Export Plug-In . SVG Version: 6.00 Build 0)  -->
<svg version="1.1" id="Layer_1" xmlns="http://www.w3.org/2000/svg" xmlns:xlink="http://www.w3.org/1999/xlink" x="0px" y="0px"
	 width="31px" height="30px" viewBox="-464 266 31 30" style="enable-background:new -464 266 31 30;" xml:space="preserve">
<style type="text/css">
	.st0{filter:url(#Adobe_OpacityMaskFilter);}
	.st1{fill:#FFFFFF;}
	.st2{mask:url(#mask-2);}
</style>
<title>Instagram</title>
<desc>Created with Sketch.</desc>
<g id="Symbols">
	<g id="Footer-Large-HD" transform="translate(-1525.000000, -22.000000)">
		<g id="Footer-Large-Desktop">
			<g id="instagram-white" transform="translate(1525.102485, 21.831085)">
				<g id="instagram" transform="translate(0.029703, 0.483871)">
					<g id="Group-3" transform="translate(0.000000, 0.048349)">
						<g id="Clip-2">
						</g>
						<defs>
							<filter id="Adobe_OpacityMaskFilter" filterUnits="userSpaceOnUse" x="-464" y="266" width="29.9" height="29">
								<feColorMatrix  type="matrix" values="1 0 0 0 0  0 1 0 0 0  0 0 1 0 0  0 0 0 1 0"/>
							</filter>
						</defs>
						<mask maskUnits="userSpaceOnUse" x="-464" y="266" width="29.9" height="29" id="mask-2">
							<g class="st0">
								<polygon id="path-1" class="st1" points="-464,295 -464,266 -434.1,266 -434.1,295 								"/>
							</g>
						</mask>
						<path id="Fill-1" class="st2" d="M-449,266c-4.1,0-4.6,0-6.2,0.1c-1.6,0.1-2.7,0.3-3.6,0.7c-1,0.4-1.8,0.9-2.7,1.7
							c-0.8,0.8-1.3,1.6-1.7,2.6c-0.4,0.9-0.6,2-0.7,3.5c-0.1,1.5-0.1,2-0.1,6c0,3.9,0,4.4,0.1,6c0.1,1.5,0.3,2.6,0.7,3.5
							c0.4,1,0.9,1.8,1.7,2.6c0.8,0.8,1.7,1.3,2.7,1.7c1,0.4,2,0.6,3.6,0.7c1.6,0.1,2.1,0.1,6.2,0.1s4.6,0,6.2-0.1
							c1.6-0.1,2.7-0.3,3.6-0.7c1-0.4,1.8-0.9,2.7-1.7c0.8-0.8,1.3-1.6,1.7-2.6c0.4-0.9,0.6-2,0.7-3.5c0.1-1.5,0.1-2,0.1-6
							c0-3.9,0-4.4-0.1-6c-0.1-1.5-0.3-2.6-0.7-3.5c-0.4-1-0.9-1.8-1.7-2.6c-0.8-0.8-1.7-1.3-2.7-1.7c-1-0.4-2-0.6-3.6-0.7
							C-444.5,266-445,266-449,266 M-449,268.6c4,0,4.5,0,6,0.1c1.5,0.1,2.3,0.3,2.8,0.5c0.7,0.3,1.2,0.6,1.7,1.1
							c0.5,0.5,0.8,1,1.1,1.7c0.2,0.5,0.4,1.3,0.5,2.7c0.1,1.5,0.1,2,0.1,5.9c0,3.9,0,4.3-0.1,5.9c-0.1,1.4-0.3,2.2-0.5,2.7
							c-0.3,0.7-0.6,1.2-1.1,1.7c-0.5,0.5-1,0.8-1.7,1.1c-0.5,0.2-1.3,0.4-2.8,0.5c-1.6,0.1-2.1,0.1-6,0.1s-4.5,0-6-0.1
							c-1.5-0.1-2.3-0.3-2.8-0.5c-0.7-0.3-1.2-0.6-1.7-1.1c-0.5-0.5-0.8-1-1.1-1.7c-0.2-0.5-0.4-1.3-0.5-2.7c-0.1-1.5-0.1-2-0.1-5.9
							c0-3.9,0-4.3,0.1-5.9c0.1-1.4,0.3-2.2,0.5-2.7c0.3-0.7,0.6-1.2,1.1-1.7c0.5-0.5,1-0.8,1.7-1.1c0.5-0.2,1.3-0.4,2.8-0.5
							C-453.5,268.6-453,268.6-449,268.6"/>
					</g>
					<path id="Fill-4" d="M-449,285.4c-2.8,0-5-2.2-5-4.8c0-2.7,2.2-4.8,5-4.8s5,2.2,5,4.8C-444,283.2-446.3,285.4-449,285.4
						 M-449,273.1c-4.2,0-7.7,3.3-7.7,7.4c0,4.1,3.4,7.4,7.7,7.4s7.7-3.3,7.7-7.4C-441.3,276.4-444.8,273.1-449,273.1"/>
					<path id="Fill-6" d="M-439.2,272.8c0,1-0.8,1.7-1.8,1.7c-1,0-1.8-0.8-1.8-1.7c0-1,0.8-1.7,1.8-1.7
						C-440.1,271.1-439.2,271.8-439.2,272.8"/>
				</g>
			</g>
		</g>
	</g>
</g>
</svg>
